<?xml version="1.0" encoding="UTF-8"?>
<svg width="17px" height="17px" viewBox="0 0 17 17" version="1.1" xmlns="http://www.w3.org/2000/svg" xmlns:xlink="http://www.w3.org/1999/xlink">
    <!-- Generator: Sketch 51.2 (57519) - http://www.bohemiancoding.com/sketch -->
    <title>Fill 1</title>
    <desc>Created with Sketch.</desc>
    <defs></defs>
    <g id="Page-1" stroke="none" stroke-width="1" fill="none" fill-rule="evenodd">
        <g id="Home" transform="translate(-275.000000, -534.000000)" fill="#000000">
            <path d="M291.79174,549.792603 L287.704901,545.705764 C288.717915,544.470622 289.328439,542.888586 289.328439,541.16422 C289.328439,537.209173 286.119266,534 282.16422,534 C278.205791,534 275,537.209173 275,541.16422 C275,545.119266 278.205791,548.328439 282.16422,548.328439 C283.888586,548.328439 285.467066,547.721298 286.702208,546.708283 L290.789047,550.79174 C291.066683,551.06942 291.514276,551.06942 291.79174,550.79174 C292.06942,550.517659 292.06942,550.066683 291.79174,549.792603 Z M282.16422,546.902612 C278.996722,546.902612 276.422488,544.328334 276.422488,541.16422 C276.422488,538.000105 278.996722,535.422488 282.16422,535.422488 C285.328334,535.422488 287.906168,538.000105 287.906168,541.16422 C287.906168,544.328334 285.328334,546.902612 282.16422,546.902612 Z" id="Fill-1"></path>
        </g>
    </g>
</svg>