<?xml version="1.0" encoding="UTF-8"?>
<svg width="66px" height="15px" viewBox="0 0 66 15" version="1.1" xmlns="http://www.w3.org/2000/svg" xmlns:xlink="http://www.w3.org/1999/xlink">
    <!-- Generator: Sketch 51.2 (57519) - http://www.bohemiancoding.com/sketch -->
    <title>contact</title>
    <desc>Created with Sketch.</desc>
    <defs></defs>
    <g id="Page-1" stroke="none" stroke-width="1" fill="none" fill-rule="evenodd">
        <g id="Restaurant" transform="translate(-113.000000, -148.000000)" fill="#4A90E2">
            <g id="Group-4" transform="translate(15.000000, 62.000000)">
                <g id="contact" transform="translate(98.000000, 85.000000)">
                    <text id="Contact" font-family="Helvetica" font-size="14" font-weight="normal" letter-spacing="-0.0056">
                        <tspan x="18" y="14">Contact</tspan>
                    </text>
                    <path d="M14.6963915,12.8642778 L12.374837,10.5417274 C11.9120533,10.0812675 11.1468333,10.0955428 10.6684464,10.5742617 L9.49853965,11.7438365 C9.42483951,11.7036666 9.34815153,11.6608408 9.26781173,11.6156912 C8.52848645,11.2056926 7.51826335,10.645638 6.4535951,9.58096973 C5.38660298,8.51364562 4.82488839,7.50076666 4.41522185,6.76144138 C4.37106816,6.68375745 4.32957033,6.60872938 4.28940044,6.53602519 L5.07387536,5.75254621 L5.46030312,5.36611845 C5.93902205,4.88640357 5.9532973,4.12118364 5.49150949,3.65972781 L3.16895911,1.33717743 C2.70849922,0.875389615 1.94228335,0.889664867 1.46223649,1.36937975 L0.808894699,2.02703731 L0.82549383,2.04496437 C0.606385304,2.3251577 0.423462883,2.64817678 0.287350011,2.99576258 C0.1615286,3.32774519 0.0825167375,3.64412462 0.0476585629,3.96050406 C-0.259757339,6.50216296 0.902181814,8.82471333 4.0533608,11.9772202 C8.41063262,16.3331641 11.9223447,16.0051653 12.0740608,15.9882342 C12.4033875,15.9493922 12.719767,15.8703804 13.0414581,15.7458869 C13.3863881,15.611102 13.7094071,15.4281795 13.9882725,15.209071 L14.0025478,15.2220183 L14.666513,14.5723283 C15.143572,14.0922815 15.1578473,13.3273935 14.6963915,12.8642778 Z" id="Fill-1"></path>
                </g>
            </g>
        </g>
    </g>
</svg>