<?xml version="1.0" encoding="UTF-8"?>
<svg width="23px" height="22px" viewBox="0 0 23 22" version="1.1" xmlns="http://www.w3.org/2000/svg" xmlns:xlink="http://www.w3.org/1999/xlink">
    <!-- Generator: Sketch 51.2 (57519) - http://www.bohemiancoding.com/sketch -->
    <title>Group</title>
    <desc>Created with Sketch.</desc>
    <defs></defs>
    <g id="Page-1" stroke="none" stroke-width="1" fill="none" fill-rule="evenodd">
        <g id="Home" transform="translate(-149.000000, -532.000000)" fill="#0A0B09" stroke="#000000" stroke-width="0.5">
            <g id="Group" transform="translate(150.000000, 533.000000)">
                <path d="M20.7766552,7.54892477 L10.8223328,0.107570631 C10.6303387,-0.035856877 10.3696025,-0.035856877 10.1776905,0.107570631 L0.223327069,7.54892477 C-0.0198134175,7.73071128 -0.0726004968,8.07929248 0.10544823,8.32753723 C0.283455941,8.57578197 0.62495184,8.62963534 0.868010296,8.44793258 L10.4999911,1.24749478 L20.131972,8.44793258 C20.2290969,8.52054668 20.3420129,8.55555556 20.4538624,8.55555556 C20.6218623,8.55555556 20.7876474,8.47661808 20.894534,8.32753723 C21.0726238,8.07929248 21.0197957,7.73071128 20.7766552,7.54892477" id="Fill-1"></path>
                <path d="M17.5333427,9 C17.2756516,9 17.0666854,9.25766348 17.0666854,9.57559987 L17.0666854,18.7376459 L13.333497,18.7376459 L13.333497,13.7363783 C13.333497,12.1493357 12.2866664,10.8581626 11,10.8581626 C9.71336865,10.8581626 8.66653804,12.1493789 8.66653804,13.7363783 L8.66653804,18.7376459 L4.9333497,18.7376459 L4.9333497,9.57559987 C4.9333497,9.25766348 4.72438348,9 4.46669239,9 C4.2090013,9 4,9.25766348 4,9.57559987 L4,19.3132457 C4,19.6311821 4.2090013,19.8888889 4.46669239,19.8888889 L9.13319536,19.8888889 C9.37864384,19.8888889 9.57943663,19.655023 9.59806363,19.3581151 C9.59918616,19.3446154 9.59988775,19.3299474 9.59988775,19.3132457 L9.59988775,13.7363783 C9.59988775,12.7841268 10.227944,12.0094056 11,12.0094056 C11.772056,12.0094056 12.4001473,12.78417 12.4001473,13.7363783 L12.4001473,19.3132457 C12.4001473,19.3298608 12.4008489,19.3442692 12.4019714,19.3575959 C12.4203529,19.6547202 12.6212509,19.8888889 12.8668046,19.8888889 L17.5333427,19.8888889 C17.7910689,19.8888889 18,19.6311821 18,19.3132457 L18,9.57559987 C18,9.25766348 17.7910689,9 17.5333427,9" id="Fill-3"></path>
            </g>
        </g>
    </g>
</svg>