<?xml version="1.0" encoding="UTF-8"?>
<svg width="66px" height="14px" viewBox="0 0 66 14" version="1.1" xmlns="http://www.w3.org/2000/svg" xmlns:xlink="http://www.w3.org/1999/xlink">
    <!-- Generator: Sketch 51.2 (57519) - http://www.bohemiancoding.com/sketch -->
    <title>Location</title>
    <desc>Created with Sketch.</desc>
    <defs></defs>
    <g id="Page-1" stroke="none" stroke-width="1" fill="none" fill-rule="evenodd">
        <g id="Restaurant" transform="translate(-16.000000, -149.000000)" fill="#4A90E2">
            <g id="Group-4" transform="translate(15.000000, 62.000000)">
                <g id="Location" transform="translate(1.000000, 85.000000)">
                    <path d="M4.99998652,9.5156194 C3.61288705,9.5156194 2.48440757,8.38711295 2.48440757,6.99998652 C2.48440757,5.61288705 3.61291401,4.4843806 4.99998652,4.4843806 C6.38708599,4.4843806 7.51559243,5.61288705 7.51559243,6.99998652 C7.51559243,8.38711295 6.38708599,9.5156194 4.99998652,9.5156194 Z M4.99998652,2 C2.24299116,2 0,4.24299116 0,6.99998652 C0,10.4215039 4.47452225,15.4444915 4.665029,15.656651 C4.84396783,15.8559483 5.15635575,15.8556247 5.334971,15.656651 C5.52547775,15.4444915 10,10.4215039 10,6.99998652 C9.99997304,4.24299116 7.75698188,2 4.99998652,2 Z" id="maps-and-flags"></path>
                    <text font-family="Helvetica" font-size="14" font-weight="normal" letter-spacing="-0.0056">
                        <tspan x="14" y="14">Location</tspan>
                    </text>
                </g>
            </g>
        </g>
    </g>
</svg>